<svg height="2500" width="2500" xmlns="http://www.w3.org/2000/svg" viewBox="0 0 911 911">
  <g fill="none" fill-rule="evenodd">
    <path d="M455.5 911a455.5 455.5 0 1 1 0-911 455.5 455.5 0 0 1 0 911zm-1-15a440.5 440.5 0 1 0 0-881 440.5 440.5 0 0 0 0 881z" fill="#9b9b9b"/>
    <path d="M187.5 638C105.5 638 39 559.4 39 462.5S105.5 287 187.5 287 336 365.6 336 462.5 269.5 638 187.5 638zm0-57c38.4 0 69.5-53.3 69.5-119s-31.1-119-69.5-119S118 396.3 118 462s31.1 119 69.5 119z" fill="#642286"/>
    <path d="M355.2 494.8c0-23.2-4-217.2-4-232.8s13.8-23.5 23.3-23.5h35c8.3 0 25 3 25 28.8s2.8 157 2.8 166 5.4 19 24 19H528c9 0 17.7 5.7 17.7 21.3 0 15.7-1.2 33.7-3.6 44.2-2.5 10.4-10 15.4-28.4 15.4H392.6c-18 0-37.4-15.3-37.4-38.4z" fill="#a9b900"/>
    <path d="M542 541c11-12 39-43.2 83.8-93.4-37-73.3-58-115.9-63.3-127.5-7.7-17.5 10.2-38 26.2-38s32 5.5 42.8 21.7l51.5 76.3c44.4-49.4 69.5-78.1 75.2-86.1 8.6-12 34.8-23.8 47.5-16.3 12.8 7.5 13 22.6-2 44.9l-81 118.8a8507.6 8507.6 0 0 1 112.6 166.9c7.7 13.2 5.8 29.8-16 36.1-21.8 6.2-38.6 10.2-53 13.6-14.5 3.3-28.4 1.6-43.6-25.4-10.2-18-29.6-53.7-58.1-106.9-40 60.3-63.7 96-71.3 106.9-11.4 16.4-28.1 19.7-38.6 3.4s-15.4-24.5-23.4-40.2c-8-15.8-6-36.5 10.6-54.7z" fill="#fe7701"/>
  </g>
</svg>
